<svg version="1.1" xmlns="http://www.w3.org/2000/svg" xmlns:xlink="http://www.w3.org/1999/xlink" width="90.23229" height="250.58468" viewBox="0,0,90.23229,250.58468"><g transform="translate(-195.00446,-51.79385)"><g data-paper-data="{&quot;isPaintingLayer&quot;:true}" fill-rule="nonzero" stroke-linejoin="miter" stroke-miterlimit="10" stroke-dasharray="" stroke-dashoffset="0" style="mix-blend-mode: normal"><g data-paper-data="{&quot;origPos&quot;:null,&quot;index&quot;:null}" stroke="none" stroke-width="0"><g data-paper-data="{&quot;origPos&quot;:null}" fill="#0a0602" stroke-linecap="butt"><path d="M255.65057,57.60811c-0.09754,2.14144 -2.06215,3.78763 -4.388,3.67686c-2.32587,-0.11079 -4.13229,-1.93655 -4.03474,-4.07798c0.09754,-2.14145 2.06215,-3.78762 4.388,-3.67686c2.32587,0.11077 4.13228,1.93653 4.03473,4.07796z" data-paper-data="{&quot;origPos&quot;:null}"/><path d="M250.0662,55.14696c-0.08167,1.75706 -1.74864,3.10659 -3.72331,3.01425c-1.97465,-0.09233 -3.50926,-1.59157 -3.4276,-3.34864c0.08166,-1.75706 1.74864,-3.10658 3.72331,-3.01425c1.97464,0.09231 3.50924,1.59155 3.42758,3.34862z" data-paper-data="{&quot;origPos&quot;:null}"/><path d="M239.82954,56.09588c-0.06565,1.41256 -1.40578,2.49751 -2.99328,2.42326c-1.5875,-0.07425 -2.82117,-1.27954 -2.75554,-2.69209c0.06566,-1.41255 1.40578,-2.4975 2.99328,-2.42325c1.5875,0.07425 2.82118,1.27953 2.75555,2.69208z" data-paper-data="{&quot;origPos&quot;:null}"/><path d="M237.30149,59.68614c-0.0723,1.55611 -1.54865,2.7513 -3.2975,2.66953c-1.74884,-0.08175 -3.10794,-1.40953 -3.03562,-2.96566c0.0723,-1.55613 1.54865,-2.75132 3.2975,-2.66955c1.74884,0.08178 3.10793,1.40955 3.03561,2.96568z" data-paper-data="{&quot;origPos&quot;:null}"/><path d="M244.58016,54.68374c-0.0703,1.51304 -1.50573,2.67512 -3.20617,2.59562c-1.70037,-0.07949 -3.02183,-1.3705 -2.95152,-2.88354c0.07031,-1.51302 1.50573,-2.67514 3.20617,-2.59563c1.70039,0.0795 3.02184,1.37053 2.95153,2.88355z" data-paper-data="{&quot;origPos&quot;:null}"/><path d="M263.0849,128.74804c-0.07092,1.52586 -1.47143,2.70002 -3.12814,2.62257c-1.65672,-0.07748 -2.94225,-1.37724 -2.87134,-2.90311c0.0709,-1.52588 1.47143,-2.70004 3.12814,-2.62259c1.65673,0.0775 2.94225,1.37725 2.87134,2.90312z" data-paper-data="{&quot;origPos&quot;:null}"/><path d="M258.64612,131.43832c-0.07092,1.52586 -1.47145,2.70006 -3.12816,2.62257c-1.65672,-0.07746 -2.94225,-1.37724 -2.87134,-2.90311c0.07089,-1.52588 1.47142,-2.70004 3.12813,-2.62259c1.65673,0.07747 2.94226,1.37725 2.87135,2.90312z" data-paper-data="{&quot;origPos&quot;:null}"/><path d="M254.63537,132.13723c-0.08453,1.81871 -1.75382,3.21822 -3.72849,3.12589c-1.97467,-0.09234 -3.50695,-1.64153 -3.42241,-3.46025c0.08453,-1.81871 1.75382,-3.21822 3.72849,-3.12589c1.97466,0.09235 3.50695,1.64157 3.42241,3.46029z" data-paper-data="{&quot;origPos&quot;:null}"/><path d="M267.63809,125.17464c-0.08453,1.81871 -1.75383,3.21822 -3.7285,3.12589c-1.97467,-0.09235 -3.50695,-1.64155 -3.42241,-3.46027c0.08453,-1.81872 1.75382,-3.21822 3.72849,-3.12589c1.97467,0.09234 3.50695,1.64154 3.42241,3.46026z" data-paper-data="{&quot;origPos&quot;:null}"/><path d="M248.72073,132.91624c-0.08452,1.81873 -1.75381,3.21823 -3.72848,3.1259c-1.97466,-0.09236 -3.50695,-1.64157 -3.42241,-3.46029c0.08453,-1.81872 1.75382,-3.21822 3.72849,-3.12589c1.97466,0.09234 3.50695,1.64155 3.42241,3.46027z" data-paper-data="{&quot;origPos&quot;:null}"/><path d="M238.79919,136.75178c-1.97467,-0.09237 -3.50695,-1.64157 -3.42241,-3.46029c0.08453,-1.81872 1.75382,-3.21823 3.72849,-3.1259c1.97467,0.09236 3.50695,1.64157 3.42241,3.46029c-0.08452,1.81872 -1.75382,3.21823 -3.72849,3.1259z" data-paper-data="{&quot;origPos&quot;:null}"/><path d="M232.67534,135.78139c-1.97467,-0.09234 -3.50695,-1.64155 -3.42241,-3.46027c0.08453,-1.81871 1.75382,-3.21821 3.72849,-3.12588c1.97467,0.09234 3.50695,1.64154 3.42241,3.46026c-0.08453,1.81872 -1.75382,3.21822 -3.72849,3.12589z" data-paper-data="{&quot;origPos&quot;:null}"/><path d="M230.86276,130.61863c-0.08453,1.81871 -1.75383,3.21822 -3.7285,3.12589c-1.97467,-0.09234 -3.50693,-1.64155 -3.42241,-3.46027c0.08453,-1.81871 1.75382,-3.21822 3.72849,-3.12589c1.97466,0.09236 3.50695,1.64157 3.42241,3.46029z" data-paper-data="{&quot;origPos&quot;:null}"/><path d="M222.04034,131.23815c-1.97466,-0.09234 -3.50693,-1.64155 -3.42241,-3.46027c0.08452,-1.81872 1.75381,-3.21822 3.72848,-3.12589c1.97466,0.09234 3.50693,1.64154 3.42241,3.46026c-0.08453,1.81872 -1.75381,3.21823 -3.72848,3.1259z" data-paper-data="{&quot;origPos&quot;:null}"/><path d="M222.18057,124.85601c-0.08453,1.81872 -1.75382,3.21823 -3.72849,3.1259c-1.97466,-0.09235 -3.50693,-1.64157 -3.42241,-3.46029c0.08453,-1.81871 1.75382,-3.21821 3.72849,-3.12588c1.97466,0.09234 3.50693,1.64153 3.42241,3.46025z" data-paper-data="{&quot;origPos&quot;:null}"/><path d="M275.54304,94.02738c-0.08453,1.81871 -1.75382,3.21822 -3.72849,3.12589c-1.97467,-0.09234 -3.50695,-1.64154 -3.42241,-3.46026c0.08453,-1.81871 1.75382,-3.21822 3.72849,-3.12589c1.97466,0.09236 3.50695,1.64157 3.42241,3.46029z" data-paper-data="{&quot;origPos&quot;:null}"/><path d="M274.03747,88.21928c-0.08453,1.81872 -1.75382,3.21823 -3.72849,3.1259c-1.97467,-0.09235 -3.50695,-1.64157 -3.42241,-3.46029c0.08454,-1.81872 1.75382,-3.21821 3.72849,-3.12588c1.97466,0.09234 3.50695,1.64154 3.42241,3.46026z" data-paper-data="{&quot;origPos&quot;:null}"/><path d="M272.05615,82.33814c0.77576,1.24436 0.31668,2.78318 -1.0254,3.43702c-1.34208,0.65385 -3.05892,0.17512 -3.83468,-1.06926c-0.77576,-1.24436 -0.31669,-2.78318 1.02539,-3.43702c1.34208,-0.65385 3.05893,-0.17513 3.83469,1.06925z" data-paper-data="{&quot;origPos&quot;:null,&quot;origRot&quot;:0}"/><path d="M275.45249,103.59729c0.77576,1.24435 0.31669,2.78318 -1.02539,3.43702c-1.34208,0.65385 -3.05892,0.17512 -3.83468,-1.06926c-0.77576,-1.24436 -0.31668,-2.78317 1.0254,-3.43701c1.34209,-0.65385 3.05893,-0.17513 3.83469,1.06925z" data-paper-data="{&quot;origPos&quot;:null,&quot;origRot&quot;:0}"/><path d="M270.77415,79.48332c-0.08454,1.81872 -1.75383,3.21823 -3.7285,3.12589c-1.97466,-0.09235 -3.50695,-1.64154 -3.42241,-3.46027c0.08451,-1.81873 1.75381,-3.21824 3.72848,-3.1259c1.97467,0.09234 3.50696,1.64156 3.42242,3.46027z" data-paper-data="{&quot;origPos&quot;:null}"/><path d="M269.0757,74.29204c-0.08453,1.81872 -1.75382,3.21823 -3.72849,3.12589c-1.97466,-0.09236 -3.50695,-1.64158 -3.42241,-3.46029c0.08453,-1.81871 1.75382,-3.21822 3.72849,-3.12588c1.97466,0.09233 3.50695,1.64155 3.42241,3.46026z" data-paper-data="{&quot;origPos&quot;:null}"/><path d="M276.18774,100.09253c-0.08452,1.81873 -1.75381,3.21823 -3.72848,3.1259c-1.97466,-0.09236 -3.50695,-1.64157 -3.42241,-3.46029c0.08452,-1.81872 1.75381,-3.21823 3.72848,-3.1259c1.97466,0.09233 3.50695,1.64155 3.42241,3.46027z" data-paper-data="{&quot;origPos&quot;:null}"/><path d="M266.91996,68.85472c-0.08453,1.81873 -1.75382,3.21824 -3.72849,3.1259c-1.97466,-0.09233 -3.50695,-1.64155 -3.42241,-3.46026c0.08453,-1.81873 1.75382,-3.21823 3.72849,-3.12589c1.97466,0.09236 3.50695,1.64156 3.42241,3.46027z" data-paper-data="{&quot;origPos&quot;:null}"/><path d="M263.25143,63.89843c-0.08453,1.81872 -1.75383,3.21823 -3.7285,3.12589c-1.97467,-0.09233 -3.50695,-1.64155 -3.42241,-3.46026c0.08452,-1.81872 1.75381,-3.21823 3.72848,-3.12589c1.97466,0.09236 3.50695,1.64156 3.42241,3.46027z" data-paper-data="{&quot;origPos&quot;:null}"/><path d="M275.53004,110.16059c-0.08453,1.81871 -1.75384,3.21822 -3.72851,3.12589c-1.97467,-0.09233 -3.50695,-1.64155 -3.42241,-3.46027c0.08453,-1.81871 1.75383,-3.21822 3.7285,-3.12589c1.97466,0.09235 3.50695,1.64157 3.42241,3.46029z" data-paper-data="{&quot;origPos&quot;:null}"/><path d="M274.2541,115.70763c-0.08453,1.81872 -1.75382,3.21822 -3.72849,3.12589c-1.97466,-0.09233 -3.50695,-1.64154 -3.42241,-3.46026c0.08453,-1.81873 1.75382,-3.21823 3.72849,-3.1259c1.97466,0.09234 3.50695,1.64154 3.42241,3.46026z" data-paper-data="{&quot;origPos&quot;:null}"/><path d="M271.22925,120.93756c-0.08453,1.81873 -1.75382,3.21823 -3.72849,3.1259c-1.97466,-0.09233 -3.50695,-1.64155 -3.42241,-3.46027c0.08453,-1.81872 1.75383,-3.21822 3.7285,-3.12589c1.97467,0.09234 3.50695,1.64154 3.42241,3.46026z" data-paper-data="{&quot;origPos&quot;:null}"/><path d="M259.35264,59.71865c-0.06604,1.42093 -1.37025,2.51436 -2.91304,2.44222c-1.54277,-0.07214 -2.73992,-1.2825 -2.67389,-2.70345c0.06604,-1.42093 1.37024,-2.51436 2.91303,-2.44222c1.54278,0.07215 2.73992,1.28251 2.67389,2.70346z" data-paper-data="{&quot;origPos&quot;:null}"/><path d="M210.54732,93.76786c-0.09439,-1.82011 1.42954,-3.34549 3.40379,-3.40702c1.97426,-0.06153 3.65121,1.36407 3.74559,3.18418c0.09439,1.82012 -1.42954,3.34549 -3.40379,3.40702c-1.97425,0.06153 -3.65121,-1.36407 -3.74559,-3.18418z" data-paper-data="{&quot;origPos&quot;:null,&quot;index&quot;:null,&quot;origRot&quot;:0}"/><path d="M209.8668,98.7704c-0.09439,-1.82011 1.42954,-3.34549 3.40379,-3.40702c1.97425,-0.06153 3.65121,1.36407 3.74559,3.18418c0.09439,1.82012 -1.42954,3.34549 -3.40379,3.40702c-1.97425,0.06153 -3.65121,-1.36407 -3.74559,-3.18418z" data-paper-data="{&quot;origPos&quot;:null,&quot;index&quot;:null,&quot;origRot&quot;:0}"/><path d="M213.52186,106.69129c-1.97425,0.06153 -3.65121,-1.36407 -3.74559,-3.18418c-0.09439,-1.82011 1.42954,-3.34549 3.40379,-3.40702c1.97425,-0.06153 3.65121,1.36407 3.74559,3.18418c0.0944,1.82012 -1.42953,3.3455 -3.40378,3.40703z" data-paper-data="{&quot;origPos&quot;:null,&quot;index&quot;:null,&quot;origRot&quot;:0}"/><path d="M209.08514,109.06692c-0.09439,-1.82011 1.42953,-3.34549 3.40378,-3.40702c1.97425,-0.06153 3.65121,1.36407 3.74559,3.18418c0.0944,1.82012 -1.42953,3.34549 -3.40378,3.40702c-1.97427,0.06153 -3.65121,-1.36407 -3.74559,-3.18418z" data-paper-data="{&quot;origPos&quot;:null,&quot;index&quot;:null,&quot;origRot&quot;:0}"/><path d="M209.56345,114.65233c-0.09439,-1.82011 1.42954,-3.34549 3.40379,-3.40702c1.97425,-0.06153 3.65121,1.36407 3.74559,3.18418c0.09439,1.82013 -1.42954,3.34549 -3.40379,3.40702c-1.97425,0.06153 -3.65121,-1.36407 -3.74559,-3.18418z" data-paper-data="{&quot;origPos&quot;:null,&quot;index&quot;:null,&quot;origRot&quot;:0}"/><path d="M215.54689,123.18174c-1.97425,0.06153 -3.65121,-1.36407 -3.74559,-3.18418c-0.09439,-1.82012 1.42954,-3.3455 3.40379,-3.40703c1.97426,-0.06153 3.65121,1.36407 3.74559,3.18418c0.09439,1.82011 -1.42954,3.34549 -3.40379,3.40702z" data-paper-data="{&quot;origPos&quot;:null,&quot;index&quot;:null,&quot;origRot&quot;:0}"/><path d="M215.22012,91.68076c-1.64519,0.05129 -3.04266,-1.13673 -3.12131,-2.65348c-0.07866,-1.51675 1.19131,-2.7879 2.8365,-2.83918c1.6452,-0.05128 3.04266,1.13672 3.12131,2.65347c0.07865,1.51676 -1.1913,2.78792 -2.83649,2.8392z" data-paper-data="{&quot;origPos&quot;:null,&quot;index&quot;:null,&quot;origRot&quot;:0}"/><path d="M216.30723,87.51502c-1.97426,0.06153 -3.65122,-1.36407 -3.7456,-3.18418c-0.09438,-1.82011 1.42955,-3.34547 3.4038,-3.40702c1.97426,-0.06155 3.65122,1.36407 3.7456,3.18418c0.09439,1.8201 -1.42954,3.34548 -3.40379,3.40701z" data-paper-data="{&quot;origPos&quot;:null,&quot;index&quot;:null,&quot;origRot&quot;:0}"/><path d="M218.15547,82.39531c-1.97425,0.06153 -3.65121,-1.36407 -3.74559,-3.18418c-0.09439,-1.82011 1.42954,-3.34548 3.40379,-3.40703c1.97426,-0.06153 3.65122,1.36407 3.7456,3.18418c0.09439,1.82011 -1.42954,3.34549 -3.40379,3.40702z" data-paper-data="{&quot;origPos&quot;:null,&quot;index&quot;:null,&quot;origRot&quot;:0}"/><path d="M222.93856,62.15747c0.06106,-1.31351 1.26665,-2.32428 2.6928,-2.25759c1.42615,0.06667 2.53279,1.18556 2.47173,2.49908c-0.06106,1.31353 -1.26665,2.32427 -2.6928,2.25758c-1.42615,-0.06667 -2.53279,-1.18555 -2.47173,-2.49907z" data-paper-data="{&quot;origPos&quot;:null,&quot;index&quot;:null}"/><path d="M219.69821,77.2621c-1.97458,-0.09634 -3.50448,-1.76934 -3.41712,-3.73676c0.08736,-1.9674 1.75889,-3.48422 3.73349,-3.38786c1.97459,0.09635 3.50449,1.76934 3.41713,3.73676c-0.08737,1.9674 -1.7589,3.48423 -3.7335,3.38787z" data-paper-data="{&quot;origPos&quot;:null,&quot;index&quot;:null}"/><path d="M217.95267,68.86519c0.08094,-1.74185 1.6797,-3.08221 3.57091,-2.99378c1.8912,0.08842 3.35871,1.57217 3.27774,3.31401c-0.08094,1.74187 -1.67968,3.08222 -3.57089,2.99379c-1.89121,-0.08844 -3.35873,-1.57218 -3.27776,-3.31402z" data-paper-data="{&quot;origPos&quot;:null,&quot;index&quot;:null}"/><path d="M229.25054,64.37637c-1.3751,-0.06452 -2.44203,-1.15004 -2.38302,-2.42456c0.05903,-1.27453 1.2216,-2.25545 2.59674,-2.19092c1.3751,0.0645 2.44201,1.15002 2.383,2.42455c-0.05902,1.27453 -1.22159,2.25545 -2.59673,2.19092z" data-paper-data="{&quot;origPos&quot;:null,&quot;index&quot;:null}"/><path d="M220.08775,64.70292c0.07494,-1.66345 1.52356,-2.94514 3.23558,-2.86275c1.71204,0.0824 3.03915,1.49769 2.9642,3.16113c-0.07493,1.66346 -1.52355,2.94514 -3.23557,2.86275c-1.71202,-0.0824 -3.03916,-1.49769 -2.96421,-3.16113z" data-paper-data="{&quot;origPos&quot;:null,&quot;index&quot;:null}"/></g><path d="M212.19851,112.174c-1.44174,-21.73037 7.45461,-50.94426 18.96624,-50.57094c2.79288,-6.57214 6.16804,-7.71986 13.67536,-7.22913c8.7955,0.57493 19.47766,11.26485 22.66393,21.84168c1.89479,6.28981 6.60668,17.30213 3.88751,35.89363c-0.91396,6.30522 -7.46449,24.00892 -32.67634,21.37721c-13.48002,-1.80941 -25.63019,-6.85886 -26.5167,-21.31247z" data-paper-data="{&quot;origPos&quot;:null}" fill="#000000" stroke-linecap="round"/></g><path d="M211.90776,190.08193c1.44065,-15.59203 8.70028,-30.07202 10.97355,-31.18281c0.14397,-0.07248 18.81631,0.40834 18.81631,0.40834c0,0 0.26904,17.23843 -0.85287,34.02967c-0.53001,7.93231 -5.3355,28.24307 -6.85057,36.7454c-2.14595,7.2366 -7.06065,11.50096 -13.63825,10.52938c-6.57761,-0.97157 -8.65043,-7.5479 -9.20985,-13.28276c-0.5002,-9.90187 -0.26678,-26.11601 0.76168,-37.24722z" data-paper-data="{&quot;origPos&quot;:null,&quot;origRot&quot;:0,&quot;index&quot;:null}" fill="#433d3d" stroke="none" stroke-width="0" stroke-linecap="butt"/><path d="M268.21813,190.28717c0.87726,11.14479 0.87851,27.36062 0.23051,37.2543c-0.64757,5.72626 -2.83492,12.27222 -9.48841,13.14953c-6.65348,0.87729 -11.5588,-2.87409 -13.62034,-10.14067c-1.40642,-8.52315 -5.97617,-29.48364 -6.39651,-37.42271c-0.88979,-16.80557 -0.62593,-34.03828 -0.62593,-34.03828c0,0 19.13037,-0.21344 19.27464,-0.1389c2.27858,1.14321 9.39719,15.72568 10.62602,31.33672z" data-paper-data="{&quot;origPos&quot;:null,&quot;origRot&quot;:0,&quot;index&quot;:null}" fill="#433d3d" stroke="none" stroke-width="0" stroke-linecap="butt"/><g data-paper-data="{&quot;origPos&quot;:null,&quot;index&quot;:null}" stroke="none" stroke-width="0"><g data-paper-data="{&quot;origPos&quot;:null}" stroke-linecap="butt"><path d="M234.10037,106.23965l0.72577,-8.08694l12.2602,0.19245l0.60165,8.42935c0,0 3.62748,1.44253 6.21883,2.43497c-6.25745,8.34998 -21.5251,7.9832 -25.98206,-0.46271c0.63912,-0.33653 6.17561,-2.50712 6.17561,-2.50712z" data-paper-data="{&quot;origPos&quot;:null}" fill="#755135"/><path d="M247.44486,103.72586c-2.43063,2.05817 -10.03583,2.38967 -13.36111,2.34811l0.65566,-7.99892l12.2602,0.19245z" data-paper-data="{&quot;origPos&quot;:null}" fill="#4c392b"/></g><path d="M240.59511,103.50227c-10.28035,0.03321 -14.28138,-8.24934 -15.41531,-17.45687c-2.24113,-0.87951 -4.45356,-5.95815 -3.13315,-8.11573c1.23444,-1.03115 2.42226,0.005 2.42226,0.005c-0.10206,-5.77952 2.36783,-18.35262 15.26232,-18.89487c15.79405,0.16643 18.2603,11.23735 17.99755,19.16116c-0.03529,0.53195 1.33703,-1.30756 2.38007,0.85556c0.94435,1.77609 -0.56198,6.77803 -3.09184,7.75574c-1.63499,8.63268 -6.49807,16.77634 -16.42189,16.68998z" data-paper-data="{&quot;origPos&quot;:null}" fill="#755135" stroke-linecap="round"/></g><path d="M245.0883,75.09671c2.06557,-1.4171 5.6047,-1.77239 8.16125,-0.25706" data-paper-data="{&quot;origPos&quot;:null,&quot;origRot&quot;:0,&quot;index&quot;:null}" fill="none" stroke="#000000" stroke-width="2" stroke-linecap="round"/><path d="M228.79294,74.11011c2.71689,-1.20443 6.18977,-0.43577 8.07452,1.21423" data-paper-data="{&quot;origPos&quot;:null,&quot;origRot&quot;:0,&quot;index&quot;:null}" fill="none" stroke="#000000" stroke-width="2" stroke-linecap="round"/><g data-paper-data="{&quot;origPos&quot;:null,&quot;index&quot;:null}" fill="none" stroke="#4c392b" stroke-width="1.5" stroke-linecap="round"><path d="M241.45546,87.44363c0.36393,-0.88384 2.0996,-0.45925 2.0996,-0.45925" data-paper-data="{&quot;origPos&quot;:null}"/><path d="M237.64554,86.837c0,0 1.48371,-0.22529 1.71467,0.64121" data-paper-data="{&quot;origPos&quot;:null}"/></g><g data-paper-data="{&quot;origPos&quot;:null,&quot;index&quot;:null}"><path d="M245.30705,80.43718c-0.30809,-1.20513 1.39895,-2.56044 3.75219,-2.90863c2.35324,-0.34818 4.46164,-0.18514 4.76974,1.02c0.3081,1.20513 -1.30078,2.99601 -3.65402,3.3442c-2.35323,0.34819 -4.55982,-0.25044 -4.86791,-1.45557z" data-paper-data="{&quot;origPos&quot;:null,&quot;origRot&quot;:0}" fill="#ffffff" stroke="none" stroke-width="0" stroke-linecap="butt"/><path d="M250.53162,80.13288c-0.11288,1.9224 -1.66275,2.12086 -3.36721,1.73397c-3.08853,-0.71063 -2.14833,-3.5558 0.95717,-4.08395c1.53821,-0.03686 2.52497,0.69398 2.41005,2.34998z" data-paper-data="{&quot;origPos&quot;:null,&quot;origRot&quot;:0}" fill="#000000" stroke="none" stroke-width="1" stroke-linecap="butt"/><path d="M245.45294,79.12611c1.88433,-1.42221 5.64583,-2.08535 8.36303,-1.0481" data-paper-data="{&quot;origPos&quot;:null,&quot;origRot&quot;:0}" fill="none" stroke="#000000" stroke-width="1.5" stroke-linecap="round"/></g><g data-paper-data="{&quot;origPos&quot;:null,&quot;index&quot;:null}"><path d="M227.92123,78.45818c0.40519,-1.10154 2.776,-1.22189 5.09609,-0.7263c2.32009,0.4956 3.87241,1.79034 3.46722,2.89187c-0.40519,1.10154 -2.61447,1.59276 -4.93456,1.09717c-2.32009,-0.49558 -4.03394,-2.1612 -3.62875,-3.26274z" data-paper-data="{&quot;origPos&quot;:null,&quot;origRot&quot;:0}" fill="#ffffff" stroke="none" stroke-width="0" stroke-linecap="butt"/><path d="M230.81788,77.29049c1.51569,0.10053 3.02729,0.39647 1.94324,2.87613c-0.70318,1.60846 -2.20044,1.56216 -3.51864,0.6735c-2.38318,-1.61823 -1.59523,-3.66084 1.57541,-3.54962z" data-paper-data="{&quot;origPos&quot;:null,&quot;origRot&quot;:0}" fill="#000000" stroke="none" stroke-width="1" stroke-linecap="butt"/><path d="M228.32099,77.8955c2.34294,-0.72282 6.24273,-0.36346 8.36364,1.44672" data-paper-data="{&quot;origPos&quot;:null,&quot;origRot&quot;:0}" fill="none" stroke="#000000" stroke-width="1.5" stroke-linecap="round"/></g><path d="M223.81275,87.07275c-0.06149,-0.57559 0.32735,-1.05021 0.86846,-1.06007c0.54113,-0.00987 1.02961,0.44877 1.09109,1.02436c0.06149,0.57559 -0.32735,1.05021 -0.86846,1.06007c-0.54113,0.00987 -1.02961,-0.44878 -1.09109,-1.02437z" data-paper-data="{&quot;origPos&quot;:null,&quot;origRot&quot;:0,&quot;index&quot;:null}" fill="#d9b8a3" stroke="#000000" stroke-width="0" stroke-linecap="butt"/><path d="M258.60563,87.19774c-0.06148,0.57559 -0.54996,1.03424 -1.09109,1.02437c-0.54111,-0.00986 -0.92995,-0.48448 -0.86846,-1.06007c0.06148,-0.57559 0.54996,-1.03423 1.09109,-1.02436c0.54111,0.00986 0.92995,0.48448 0.86846,1.06007z" data-paper-data="{&quot;origPos&quot;:null,&quot;origRot&quot;:0,&quot;index&quot;:null}" fill="#d9b8a3" stroke="#000000" stroke-width="0" stroke-linecap="butt"/><g data-paper-data="{&quot;origPos&quot;:null,&quot;index&quot;:null}"><path d="M245.75841,93.25444c-0.71642,1.14122 -1.68382,2.23338 -2.94599,2.81705c-1.61143,0.65313 -3.34972,0.56648 -4.96114,-0.08665c-2.01515,-0.87917 -2.18845,-3.60956 -2.18845,-3.60956c0.95695,-0.43292 1.97677,-0.7292 3.02603,-0.87916c0.7549,0.08582 1.46214,0.39338 2.02176,0.87916c0.55784,-0.4846 1.26257,-0.79206 2.01515,-0.87916c1.01089,0 3.03264,1.75832 3.03264,1.75832z" data-paper-data="{&quot;origPos&quot;:null}" fill="#4c392b" stroke="none" stroke-width="1" stroke-linecap="butt"/><path d="M246.10096,92.85584c-3.17523,1.80802 -7.96274,1.33372 -10.84189,-0.15319" data-paper-data="{&quot;origPos&quot;:null,&quot;origRot&quot;:0,&quot;index&quot;:null}" fill="none" stroke="#000000" stroke-width="1.5" stroke-linecap="round"/></g><g data-paper-data="{&quot;origPos&quot;:null,&quot;index&quot;:null}" stroke="none" stroke-width="0" stroke-linecap="butt"><path d="M220.12372,135.22543c-1.39845,4.4269 -5.53755,13.31059 -6.54822,16.97809c-1.0644,2.53642 -3.41075,4.72101 -6.49729,3.86272c-3.12517,-0.86904 -3.51063,-3.52594 -3.52707,-5.72782c0.43922,-1.80194 2.06908,-5.83986 2.40777,-7.85947c1.66721,-9.88639 1.77486,-21.03632 9.24472,-29.03702c2.83007,-3.03084 5.07771,-2.82285 7.7187,-3.30199" data-paper-data="{&quot;origPos&quot;:null,&quot;origRot&quot;:0}" fill="#755135"/><path d="M220.70642,136.70235c-0.63142,1.55466 -1.49222,3.32904 -2.41395,5.15072c-2.56984,-0.82681 -5.21751,-1.63871 -7.68071,-2.51815c-2.16184,-0.77184 -4.49065,-1.8449 -6.91559,-2.8879c1.80977,-8.42595 4.21917,-17.03098 11.59445,-23.43145c3.68434,-3.19702 6.5148,-2.9091 9.86707,-3.35297" data-paper-data="{&quot;origPos&quot;:null,&quot;index&quot;:null}" fill="#d89669"/></g><g data-paper-data="{&quot;index&quot;:null}" stroke="none" stroke-width="0" stroke-linecap="butt"><path d="M257.3189,109.87882c2.64099,0.47915 4.88863,0.27115 7.71869,3.30199c7.46987,8.00071 7.57751,19.15063 9.24472,29.03702c0.33869,2.01962 1.96855,6.05753 2.40777,7.85947c-0.01644,2.20188 -0.40189,4.85879 -3.52707,5.72782c-3.08654,0.85828 -5.4329,-1.32629 -6.49729,-3.86271c-1.01067,-3.66752 -5.14978,-12.55119 -6.54822,-16.97809" data-paper-data="{&quot;origPos&quot;:null,&quot;origRot&quot;:0,&quot;index&quot;:null}" fill="#755135"/><path d="M255.26103,109.43272c3.35227,0.44386 6.18274,0.15594 9.86707,3.35297c7.37529,6.40048 9.78469,15.0055 11.59445,23.43145c-2.42495,1.043 -4.75375,2.11605 -6.91559,2.8879c-2.46319,0.87944 -5.11088,1.69135 -7.68071,2.51815c-0.92173,-1.82168 -1.78253,-3.59606 -2.41395,-5.15072" data-paper-data="{&quot;origPos&quot;:null,&quot;index&quot;:null}" fill="#d89669"/></g><path d="M260.24577,158.61653c0,0 -9.01999,5.42206 -20.75638,5.35005c-12.44595,-0.07637 -19.95371,-6.34414 -19.95371,-6.34414c0,0 -1.00328,-47.20495 -0.00201,-47.42584c2.2252,-0.50246 8.87143,-1.94276 10.22903,-2.26487c2.96549,6.73086 19.31013,6.38434 21.89139,0.09523c4.5203,0.99286 9.52529,2.25725 9.52529,2.25725z" data-paper-data="{&quot;origPos&quot;:null,&quot;origRot&quot;:0,&quot;index&quot;:null}" fill="#fdc7a2" stroke="none" stroke-width="0" stroke-linecap="butt"/><g data-paper-data="{&quot;origPos&quot;:null,&quot;index&quot;:null}" fill="#0a0602" stroke="none" stroke-width="0" stroke-linecap="butt"><path d="M233.97843,59.21052c0,0 8.15089,-4.36279 15.12013,-1.19144c14.9716,6.66901 12.38984,27.30477 12.38984,27.30477c0,0 -9.95996,-13.71988 -16.05184,-18.34826c-3.70561,-2.81538 -11.45814,-7.76509 -11.45814,-7.76509z" data-paper-data="{&quot;origPos&quot;:null}"/><path d="M250.22434,65.62091c0.48018,2.51582 -1.19891,4.94943 -3.75036,5.43566c-2.55144,0.48623 -5.00904,-1.15904 -5.48923,-3.67485c-0.48017,-2.51582 1.1989,-4.94944 3.75035,-5.43567c2.55146,-0.48624 5.00906,1.15904 5.48925,3.67485z" data-paper-data="{&quot;origPos&quot;:null}"/><path d="M250.07885,75.42474c-2.21233,0.42159 -4.34331,-1.00501 -4.75968,-3.18644c-0.41635,-2.18143 1.03956,-4.2916 3.2519,-4.71322c2.21233,-0.42159 4.34331,1.00501 4.75968,3.18644c0.41636,2.18144 -1.03956,4.2916 -3.2519,4.71322z" data-paper-data="{&quot;origPos&quot;:null}"/><path d="M257.0414,73.72321c0.36728,1.9242 -0.91696,3.78557 -2.86844,4.15746c-1.95147,0.3719 -3.83116,-0.8865 -4.19844,-2.81072c-0.36727,-1.9242 0.91696,-3.78557 2.86844,-4.15746c1.95149,-0.37191 3.83118,0.88649 4.19845,2.81071z" data-paper-data="{&quot;origPos&quot;:null}"/><path d="M259.19159,77.81289c0.79234,1.4626 0.23204,3.29928 -1.25143,4.10237c-1.48345,0.80308 -3.32835,0.26842 -4.12067,-1.19417c-0.79233,-1.46261 -0.23205,-3.29931 1.25142,-4.10239c1.48345,-0.80308 3.32835,-0.26842 4.12067,1.19418z" data-paper-data="{&quot;origPos&quot;:null,&quot;origRot&quot;:0}"/><path d="M263.83832,82.95961c0.39242,2.05605 -0.97981,4.04492 -3.06498,4.44231c-2.08517,0.39738 -4.09365,-0.94723 -4.48609,-3.00328c-0.39242,-2.05607 0.9798,-4.04495 3.06497,-4.44234c2.08517,-0.39737 4.09365,0.94724 4.48609,3.00329z" data-paper-data="{&quot;origPos&quot;:null}"/><path d="M243.79311,62.14436c0.39891,2.09003 -0.99602,4.11181 -3.11568,4.51577c-2.11964,0.40395 -4.16134,-0.9629 -4.56027,-3.05295c-0.39892,-2.09003 0.99601,-4.11182 3.11567,-4.51578c2.11965,-0.40395 4.16136,0.96291 4.56029,3.05296z" data-paper-data="{&quot;origPos&quot;:null}"/><path d="M237.45464,59.44293c0.2939,1.53983 -0.73381,3.02937 -2.29548,3.32699c-1.56164,0.2976 -3.06589,-0.70943 -3.35979,-2.24927c-0.2939,-1.53983 0.73381,-3.02937 2.29548,-3.32699c1.56165,-0.29762 3.0659,0.70942 3.3598,2.24926z" data-paper-data="{&quot;origPos&quot;:null}"/><path d="M260.1771,81.37104c-2.07107,0 -3.75,-1.67893 -3.75,-3.75c0,-2.07107 1.67893,-3.75 3.75,-3.75c2.07107,0 3.75,1.67893 3.75,3.75c0,2.07107 -1.67893,3.75 -3.75,3.75z" data-paper-data="{&quot;origPos&quot;:null}"/><path d="M258.6771,74.87104c-2.07107,0 -3.75,-1.67893 -3.75,-3.75c0,-2.07107 1.67893,-3.75 3.75,-3.75c2.07107,0 3.75,1.67893 3.75,3.75c0,2.07107 -1.67893,3.75 -3.75,3.75z" data-paper-data="{&quot;origPos&quot;:null}"/><path d="M256.1771,69.12104c-2.07107,0 -3.75,-1.67893 -3.75,-3.75c0,-2.07107 1.67893,-3.75 3.75,-3.75c2.07107,0 3.75,1.67893 3.75,3.75c0,2.07107 -1.67893,3.75 -3.75,3.75z" data-paper-data="{&quot;origPos&quot;:null}"/><path d="M252.1771,64.87105c-2.07107,0 -3.75,-1.67893 -3.75,-3.75c0,-2.07107 1.67893,-3.75 3.75,-3.75c2.07107,0 3.75,1.67893 3.75,3.75c0,2.07107 -1.67893,3.75 -3.75,3.75z" data-paper-data="{&quot;origPos&quot;:null}"/><path d="M246.6771,62.37105c-2.07107,0 -3.75,-1.67893 -3.75,-3.75c0,-2.07107 1.67893,-3.75 3.75,-3.75c2.07107,0 3.75,1.67893 3.75,3.75c0,2.07107 -1.67893,3.75 -3.75,3.75z" data-paper-data="{&quot;origPos&quot;:null}"/><path d="M237.6771,60.37105c-1.51878,0 -2.75,-1.23122 -2.75,-2.75c0,-1.51878 1.23122,-2.75 2.75,-2.75c1.51878,0 2.75,1.23122 2.75,2.75c0,1.51878 -1.23122,2.75 -2.75,2.75z" data-paper-data="{&quot;origPos&quot;:null}"/><path d="M242.1771,59.87105c-1.51878,0 -2.75,-1.23122 -2.75,-2.75c0,-1.51878 1.23122,-2.75 2.75,-2.75c1.51878,0 2.75,1.23122 2.75,2.75c0,1.51878 -1.23122,2.75 -2.75,2.75z" data-paper-data="{&quot;origPos&quot;:null}"/></g><g data-paper-data="{&quot;origPos&quot;:null,&quot;index&quot;:null}"><g data-paper-data="{&quot;origPos&quot;:null,&quot;origRot&quot;:0,&quot;index&quot;:null}" stroke-linecap="round"><path d="M255.37657,283.88397c0,0 4.31049,1.34891 7.04544,1.28124c2.21215,-0.05474 6.45504,-2.09305 6.45504,-2.09305c0,0 3.86451,9.35472 3.01189,10.32502c-2.39859,2.72965 -6.38488,2.12703 -10.5937,2.15857c-3.96767,0.02975 -4.32955,4.09759 -8.25968,4.64288c-4.65173,0.6454 -9.43328,1.37466 -12.16155,-2.28462c-3.99154,-5.35367 5.05306,-4.32317 7.99814,-6.52376c2.94508,-2.20059 6.50442,-7.50628 6.50442,-7.50628z" data-paper-data="{&quot;origPos&quot;:null}" fill="#ffffff" stroke="none" stroke-width="0"/><path d="M270.46798,296.75763c-2.75222,1.45353 -4.44157,0.70599 -8.65039,0.73753c-3.96768,0.02974 -2.52194,2.82958 -9.14339,4.40617c-4.65173,0.6454 -9.29757,1.22159 -12.02584,-2.43769c-0.50243,-0.67389 -0.78072,-1.84675 -0.81272,-2.97387c1.37017,1.46019 3.87084,5.14003 13.49514,3.18021c3.62064,-1.15208 5.2558,-4.29473 8.15304,-4.584c8.09474,0.53735 7.52561,0.04046 10.56117,-1.85593c0.33299,1.73839 0.43189,2.46664 -1.57702,3.5276z" data-paper-data="{&quot;origPos&quot;:null}" fill="#a5a5a5" stroke="none" stroke-width="0"/><path d="M251.73766,293.16342l-2.36168,-2.09378" data-paper-data="{&quot;origPos&quot;:null}" fill="none" stroke="#000000" stroke-width="1.5"/><path d="M251.3609,288.9629l2.23793,2.10123" data-paper-data="{&quot;origPos&quot;:null}" fill="none" stroke="#000000" stroke-width="1.5"/><path d="M253.22205,286.86362l2.35424,1.97002" data-paper-data="{&quot;origPos&quot;:null}" fill="none" stroke="#000000" stroke-width="1.5"/></g><path d="M268.85924,233.19459c0.98696,9.83569 1.88647,50.40866 1.88647,50.40866c-0.00138,0.00064 -5.43497,2.70814 -9.22369,3.0521c-3.62605,0.32917 -9.71446,-2.1923 -9.71446,-2.1923c0,0 -5.4578,-38.0541 -5.95661,-49.51279c-1.03996,-9.14133 2.47413,-15.3238 9.15401,-15.88429c6.67989,-0.56048 12.77542,2.24306 13.85429,14.1286z" data-paper-data="{&quot;origPos&quot;:null,&quot;origRot&quot;:0,&quot;index&quot;:null}" fill="#433d3d" stroke="none" stroke-width="0" stroke-linecap="butt"/></g><g data-paper-data="{&quot;origPos&quot;:null,&quot;index&quot;:null}"><g data-paper-data="{&quot;origPos&quot;:null,&quot;origRot&quot;:0}" stroke-linecap="round"><path d="M212.73867,283.77051c0,0 4.80162,1.46502 6.0695,1.43058c3.80363,-0.10332 7.45034,-1.79782 7.45034,-1.79782c0,0 3.55469,9.47679 2.67061,10.41852c-2.48709,2.64928 -6.45137,1.91585 -10.65896,1.80892c-3.96649,-0.10079 -4.462,3.95295 -8.40794,4.36865c-4.67043,0.49203 -9.47337,1.0636 -12.07979,-2.68346c-3.81327,-5.48206 5.19252,-4.1546 8.2084,-6.25711c3.01588,-2.10252 6.74784,-7.28828 6.74784,-7.28828z" data-paper-data="{&quot;origPos&quot;:null,&quot;index&quot;:null}" fill="#ffffff" stroke="none" stroke-width="0"/><path d="M229.09062,293.65991c0.27561,1.74842 0.3505,2.47951 -1.69222,3.47382c-2.79851,1.3622 -4.46238,0.55948 -8.66997,0.45255c-3.9665,-0.10079 -2.61364,2.74509 -9.28337,4.10301c-4.67045,0.49202 -9.33272,0.91508 -11.93914,-2.83198c-0.48,-0.69005 -0.71957,-1.87143 -0.71446,-2.99901c1.32141,1.50447 3.69966,5.26458 13.38323,3.62242c3.65658,-1.03235 5.39422,-4.11952 8.29941,-4.31332c8.07269,0.80335 7.5202,0.288 10.61651,-1.5075z" data-paper-data="{&quot;origPos&quot;:null,&quot;index&quot;:null}" fill="#a5a5a5" stroke="none" stroke-width="0"/><path d="M206.50498,290.75504l2.29152,2.17032" data-paper-data="{&quot;origPos&quot;:null,&quot;index&quot;:null}" fill="none" stroke="#000000" stroke-width="1.5"/><path d="M210.72568,290.88852l-2.16759,-2.17369" data-paper-data="{&quot;origPos&quot;:null,&quot;index&quot;:null}" fill="none" stroke="#000000" stroke-width="1.5"/><path d="M212.77538,288.72426l-2.28817,-2.0464" data-paper-data="{&quot;origPos&quot;:null,&quot;index&quot;:null}" fill="none" stroke="#000000" stroke-width="1.5"/></g><path d="M209.54808,282.98455c0,0 0.4316,-39.43229 1.23873,-49.2863c0.86035,-11.90535 6.96728,-14.83348 13.73003,-14.41024c6.76275,0.42324 10.13889,6.54423 9.26475,15.70513c-0.28228,11.46669 -5.92251,49.63694 -5.92251,49.63694c0,0 -4.94917,2.62249 -8.62067,2.36781c-3.83623,-0.26611 -9.6889,-4.01271 -9.69032,-4.01334z" data-paper-data="{&quot;origPos&quot;:null,&quot;origRot&quot;:0,&quot;index&quot;:null}" fill="#433d3d" stroke="none" stroke-width="0" stroke-linecap="butt"/></g><path d="M200.6576,173.17668c0,0 0.00183,-16.13949 2.61581,-22.04756c0.33032,-1.29134 2.69086,-4.52852 6.06748,-3.61791c3.38955,0.65823 3.84589,5.29459 3.84006,5.34509c-0.84225,7.23557 -5.22665,19.741 -5.43017,21.8757c0.61463,2.0698 1.23256,4.54331 1.67824,6.46434c0.53102,1.85656 -0.39536,5.2564 -0.39923,7.17215c-0.00286,0.5441 -0.57513,1.813 -1.77068,0.46003c-0.91737,-1.30671 -0.27357,-3.06523 -0.75314,-4.45506c-0.83546,2.61603 -1.29616,3.30475 -1.51433,6.08401c-0.1946,2.47902 1.54088,5.64709 -0.58061,5.95797c-0.79172,0.26458 -1.47813,-2.6545 -1.65784,-4.68196c-0.19291,-2.1764 -0.15602,-4.189 -0.06289,-5.68831c-0.54244,0.89573 -0.57091,2.71088 -0.71238,4.39069c-0.04715,0.55993 0.31173,3.22527 0.08022,3.73727c-0.29746,0.87787 -1.20916,0.75535 -1.65137,-0.05926c-0.55527,-1.02287 -0.66919,-3.47817 -0.6382,-4.64165c0.03696,-1.38699 0.22244,-3.09987 0.42148,-4.48048c-0.49058,0.17151 -0.70354,2.38943 -0.9994,3.75597c-0.1297,0.59907 0.31371,3.25993 -0.85684,3.62599c-1.39677,0.15391 -0.94072,-3.05966 -1.09387,-4.66405c0.07627,-1.61786 0.56309,-4.33479 0.56309,-4.33479c0,0 -0.71999,2.25179 -0.99506,3.37187c-0.28121,1.14515 0.06908,2.47529 -0.9256,2.51404c-1.11739,0.16955 -0.83529,-3.01982 -0.86986,-3.42372c0.07949,-1.26227 1.23429,-4.38334 1.23429,-4.38334z" data-paper-data="{&quot;origPos&quot;:null,&quot;origRot&quot;:0,&quot;index&quot;:null}" fill="#755135" stroke="none" stroke-width="0" stroke-linecap="butt"/><path d="M283.99439,181.19262c0,0 1.15481,3.12107 1.2343,4.38333c-0.03458,0.4039 0.24753,3.59328 -0.86986,3.42373c-0.99467,-0.03875 -0.64437,-1.3689 -0.9256,-2.51404c-0.27507,-1.12007 -0.99506,-3.37187 -0.99506,-3.37187c0,0 0.48683,2.71692 0.56309,4.33479c-0.15314,1.60438 0.3029,4.81795 -1.09387,4.66405c-1.17056,-0.36606 -0.72714,-3.02692 -0.85684,-3.62599c-0.29587,-1.36655 -0.50883,-3.58447 -0.9994,-3.75597c0.19904,1.38061 0.38452,3.09348 0.42148,4.48048c0.03099,1.16348 -0.08294,3.61876 -0.63821,4.64165c-0.44222,0.81461 -1.35391,0.93713 -1.65137,0.05926c-0.23152,-0.51201 0.12738,-3.17734 0.08022,-3.73728c-0.14146,-1.67982 -0.16992,-3.49496 -0.71237,-4.39069c0.09313,1.49932 0.13002,3.51191 -0.06289,5.68831c-0.1797,2.02746 -0.86614,4.94654 -1.65784,4.68196c-2.12149,-0.31087 -0.38601,-3.47895 -0.58061,-5.95797c-0.21816,-2.77925 -0.67886,-3.46796 -1.51433,-6.084c-0.47957,1.38984 0.16423,3.14835 -0.75314,4.45506c-1.19554,1.35298 -1.76781,0.08407 -1.77067,-0.46003c-0.00385,-1.91576 -0.93026,-5.3156 -0.39923,-7.17215c0.44569,-1.92104 1.06361,-4.39454 1.67824,-6.46434c-0.20352,-2.1347 -4.58792,-14.64013 -5.43017,-21.8757c-0.00584,-0.05051 0.4505,-4.68687 3.84005,-5.34509c3.37662,-0.9106 5.73715,2.32658 6.06748,3.61791c2.61398,5.90806 2.61581,22.04756 2.61581,22.04756z" data-paper-data="{&quot;origPos&quot;:null,&quot;origRot&quot;:0,&quot;index&quot;:null}" fill="#755135" stroke="none" stroke-width="0" stroke-linecap="butt"/></g></g></svg>