<svg version="1.1" xmlns="http://www.w3.org/2000/svg" xmlns:xlink="http://www.w3.org/1999/xlink" width="97.09954" height="249.27846" viewBox="0,0,97.09954,249.27846"><g transform="translate(-191.46447,-53.10006)"><g data-paper-data="{&quot;isPaintingLayer&quot;:true}" fill-rule="nonzero" stroke-miterlimit="10" stroke-dasharray="" stroke-dashoffset="0" style="mix-blend-mode: normal"><path d="M241.56154,53.10072c14.90812,0.09885 18.62829,14.11292 20.30651,19.96576c0.79472,2.77164 0.08335,5.93427 1.17907,8.60218c1.53364,3.73416 3.72252,4.23078 4.17049,8.24044c0.4204,3.76286 -1.92496,5.84241 -1.63401,8.92234c0.60257,6.37859 2.53817,5.12954 3.43774,11.58017c1.0497,7.52701 -1.49498,20.00857 -28.98825,18.20206c-14.71983,-1.47188 -26.73201,3.42293 -28.41222,-14.70164c-0.64523,-6.96012 2.45545,-8.01599 2.64698,-11.78273c0.19153,-3.76675 -1.22007,-2.54964 -0.4367,-8.6509c1.06825,-4.31548 3.78681,-3.88365 4.36699,-7.78772c0.58018,-4.1851 -0.91213,-6.77808 0.2593,-10.60789c1.17144,-3.8298 3.64477,-22.11108 23.10409,-21.98205z" data-paper-data="{&quot;origPos&quot;:null,&quot;index&quot;:null}" fill="#000000" stroke="none" stroke-width="0" stroke-linecap="round" stroke-linejoin="miter"/><g data-paper-data="{&quot;origPos&quot;:null,&quot;index&quot;:null}" stroke="none" stroke-width="0" stroke-linejoin="miter"><g data-paper-data="{&quot;origPos&quot;:null}" stroke-linecap="butt"><path d="M227.31978,109.61798c0.66478,-0.33876 6.42364,-2.52366 6.42364,-2.52366l0.75492,-8.14028l12.75262,0.19372l0.62581,8.48494c0,0 3.77317,1.45204 6.46861,2.45103c-3.21371,5.14927 -7.06464,8.40278 -13.46098,8.50646c-7.48335,0.10741 -10.82594,-3.55004 -13.56464,-8.97223z" data-paper-data="{&quot;origPos&quot;:null}" fill="#b5875c"/><path d="M247.62394,104.49673c-2.52826,2.07176 -10.43891,2.40544 -13.89775,2.36361l0.682,-8.05167l12.75262,0.19373z" data-paper-data="{&quot;origPos&quot;:null}" fill="#755135"/></g><path d="M240.38094,104.44134c-10.34816,0.03343 -14.37556,-8.30375 -15.51697,-17.572c-2.25591,-0.8853 -4.48294,-5.99745 -3.15382,-8.16924c1.24257,-1.03796 2.43823,0.00503 2.43823,0.00503c-0.10272,-5.81762 2.0351,-19.17028 15.01463,-19.71612c15.89822,0.16754 18.72906,12.00812 18.46458,19.98419c-0.03552,0.53548 1.34585,-1.31617 2.39577,0.86121c0.95058,1.78781 -0.56567,6.82274 -3.11222,7.80689c-1.64577,8.6896 -6.54092,16.88697 -16.53019,16.80004z" data-paper-data="{&quot;origPos&quot;:null}" fill="#b5875c" stroke-linecap="round"/></g><g data-paper-data="{&quot;origPos&quot;:null,&quot;index&quot;:null}" stroke="none" stroke-width="0" stroke-linecap="butt" stroke-linejoin="miter"><path d="M256.58973,110.66675c2.67454,0.37974 4.92694,0.08365 7.89033,3.02228c7.82182,7.75736 10.94248,17.99447 13.00154,27.87268c0.41872,2.01803 1.50166,10.18936 2.01308,11.98457c0.06863,2.21504 -1.56551,3.86281 -4.67488,4.85765c-3.0709,0.98254 -5.93415,-0.67119 -7.10269,-3.18088c-1.15826,-3.64931 -5.18357,-15.0382 -6.76119,-19.43621" data-paper-data="{&quot;origPos&quot;:null,&quot;origRot&quot;:0,&quot;index&quot;:null}" fill="#b5875c"/><path d="M256.35431,110.29347c3.37384,0.44981 6.22252,0.15804 9.93057,3.3979c7.42276,6.48623 9.84766,15.20654 11.66907,23.74538c-2.44055,1.05697 -4.78434,2.14439 -6.9601,2.92658c-2.47904,0.8912 -5.14377,1.71399 -7.73014,2.55188c-0.92766,-1.84609 -1.79401,-3.64424 -2.4295,-5.21973" data-paper-data="{&quot;origPos&quot;:null,&quot;index&quot;:null}" fill="#9ed094"/></g><g data-paper-data="{&quot;origPos&quot;:null,&quot;index&quot;:null}" stroke="none" stroke-width="0" stroke-linecap="butt" stroke-linejoin="miter"><path d="M219.07255,135.78683c-1.57761,4.39801 -5.60293,15.7869 -6.76119,19.43621c-1.16854,2.5097 -4.03179,4.16342 -7.10269,3.18088c-3.10936,-0.99485 -4.74349,-2.6426 -4.67488,-4.85765c0.51142,-1.79522 1.59435,-9.96656 2.01308,-11.98457c2.05905,-9.87821 5.17972,-20.11532 13.00154,-27.87268c2.96337,-2.93865 5.21577,-2.64254 7.89032,-3.02228" data-paper-data="{&quot;origPos&quot;:null,&quot;origRot&quot;:0,&quot;index&quot;:null}" fill="#b5875c"/><path d="M220.65848,137.20704c-0.66117,1.57549 -1.56248,3.37364 -2.5276,5.21973c-2.69081,-0.83789 -5.46313,-1.66067 -8.0423,-2.55189c-2.26362,-0.78217 -4.70206,-1.8696 -7.24116,-2.92658c1.89497,-8.53883 4.41779,-17.25914 12.14028,-23.74538c3.85778,-3.23986 6.82151,-2.94807 10.33159,-3.3979" data-paper-data="{&quot;origPos&quot;:null,&quot;index&quot;:null}" fill="#9ed094"/></g><path d="M214.52632,237.98855c0,0 -2.37362,-15.51184 -1.385,-32.75304c2.56697,0.05378 21.0795,1.10262 26.21337,1.26081c-1.25636,17.71318 -3.73428,27.63112 -7.83173,35.08342c-3.34286,6.07987 -16.46792,8.8006 -16.99664,-3.5912z" data-paper-data="{&quot;origPos&quot;:null,&quot;origRot&quot;:0,&quot;index&quot;:null}" fill="#b5875c" stroke="none" stroke-width="0" stroke-linecap="butt" stroke-linejoin="miter"/><path d="M269.67349,205.65491c0.00654,0.15021 0.01282,0.3019 0.01888,0.45508c0.57301,14.50104 -0.70744,25.48812 -3.4632,33.56504c-2.24826,6.58946 -14.70304,11.64522 -17.34881,-0.45499c0,0 -5.88605,-14.16318 -6.10723,-33.1193c-0.03021,-0.28198 26.12948,-0.4548 26.90036,-0.44583z" data-paper-data="{&quot;origPos&quot;:null,&quot;origRot&quot;:0,&quot;index&quot;:null}" fill="#b5875c" stroke="none" stroke-width="0" stroke-linecap="butt" stroke-linejoin="miter"/><path d="M244.89289,74.90279c2.02241,-1.50591 5.56833,-2.00124 8.19889,-0.57674" data-paper-data="{&quot;origPos&quot;:null,&quot;origRot&quot;:0,&quot;index&quot;:null}" fill="none" stroke="#000000" stroke-width="2" stroke-linecap="round" stroke-linejoin="miter"/><path d="M228.13681,74.4052c2.63055,-1.42451 6.17649,-0.92918 8.19889,0.57674" data-paper-data="{&quot;origPos&quot;:null,&quot;origRot&quot;:0,&quot;index&quot;:null}" fill="none" stroke="#000000" stroke-width="2" stroke-linecap="round" stroke-linejoin="miter"/><path d="M256.9475,64.71193c3.30049,5.41528 0.67852,14.04745 0.67852,14.04745c0,0 -5.87083,-7.56706 -10.11408,-18.35573c-7.07396,11.57834 -23.35215,18.06589 -23.60609,18.15197c-1.39884,-6.79713 -1.10414,-15.02187 6.75868,-20.51388c9.6397,-6.4297 20.82214,-3.22875 26.28295,6.67018z" data-paper-data="{&quot;origPos&quot;:null,&quot;index&quot;:null}" fill="#000000" stroke="none" stroke-width="0" stroke-linecap="butt" stroke-linejoin="round"/><path d="M257.2776,89.5843c-0.10927,-1.77963 0.4355,-3.26044 1.21678,-3.30751c0.78129,-0.04707 1.50322,1.35742 1.61249,3.13705c0.10927,1.77963 -0.4355,3.26043 -1.21678,3.3075c-0.7813,0.04707 -1.50323,-1.35742 -1.6125,-3.13705z" data-paper-data="{&quot;origPos&quot;:null,&quot;origRot&quot;:0,&quot;index&quot;:null}" fill="none" stroke="#d6a04f" stroke-width="1.5" stroke-linecap="butt" stroke-linejoin="miter"/><path d="M221.69115,88.83752c0.10086,-1.78014 0.81599,-3.18531 1.59735,-3.13851c0.78135,0.0468 1.33301,1.52782 1.23216,3.30798c-0.10086,1.78015 -0.81599,3.18531 -1.59735,3.13851c-0.78135,-0.0468 -1.33301,-1.52781 -1.23216,-3.30797z" data-paper-data="{&quot;origPos&quot;:null,&quot;origRot&quot;:0,&quot;index&quot;:null}" fill="none" stroke="#d6a04f" stroke-width="1.5" stroke-linecap="butt" stroke-linejoin="miter"/><g data-paper-data="{&quot;origPos&quot;:null,&quot;index&quot;:null}" stroke-linejoin="miter"><path d="M231.63805,82.8593c-2.38507,-0.28629 -4.20797,-1.63464 -3.96117,-3.13214c0.24681,-1.4975 2.46987,-2.57707 4.85495,-2.29077c2.38509,0.28629 4.11848,1.73233 3.87167,3.22983c-0.24682,1.49749 -2.38038,2.47937 -4.76546,2.19307z" data-paper-data="{&quot;origPos&quot;:null,&quot;origRot&quot;:0}" fill="#ffffff" stroke="none" stroke-width="0" stroke-linecap="butt"/><path d="M228.79741,81.94275c-2.6084,-1.73874 -0.80792,-4.86262 2.37029,-4.56493c1.47377,0.40978 2.27183,2.08233 1.59487,3.53205c-0.66501,1.42415 -2.52331,1.98626 -3.96516,1.03288z" data-paper-data="{&quot;origPos&quot;:null,&quot;origRot&quot;:0}" fill="#000000" stroke="none" stroke-width="1" stroke-linecap="butt"/><path d="M228.13629,77.98734c2.23379,-0.99815 5.81352,-0.94039 8.18773,0.61276" data-paper-data="{&quot;origPos&quot;:null,&quot;origRot&quot;:0}" fill="none" stroke="#000000" stroke-width="1.5" stroke-linecap="round"/></g><g data-paper-data="{&quot;index&quot;:null}" stroke-linejoin="miter"><path d="M249.88814,82.74122c-2.39353,0.22927 -4.55231,-0.68952 -4.74994,-2.19232c-0.19763,-1.5028 1.64067,-3.02053 4.03419,-3.24979c2.39354,-0.22926 4.49409,0.80315 4.69173,2.30595c0.19764,1.50279 -1.58247,2.9069 -3.97599,3.13616z" data-paper-data="{&quot;origPos&quot;:null,&quot;origRot&quot;:0}" fill="#ffffff" stroke="none" stroke-width="0" stroke-linecap="butt"/><path d="M250.40887,80.61431c-0.2288,1.52056 -1.8647,2.45967 -3.53922,1.8425c-3.03337,-1.13007 -2.2005,-4.53804 0.96453,-4.92472c1.54689,0.0839 2.80758,1.53433 2.57468,3.08222z" data-paper-data="{&quot;origPos&quot;:null,&quot;origRot&quot;:0}" fill="#000000" stroke="none" stroke-width="1" stroke-linecap="butt"/><path d="M245.30928,78.62876c2.02241,-1.28514 5.56833,-1.70786 8.19889,-0.49219" data-paper-data="{&quot;origPos&quot;:null,&quot;origRot&quot;:0}" fill="none" stroke="#000000" stroke-width="1.5" stroke-linecap="round"/></g><g data-paper-data="{&quot;index&quot;:null}" fill="none" stroke="#755135" stroke-width="1.5" stroke-linecap="round" stroke-linejoin="miter"><path d="M241.28785,87.98564c0.36633,-0.88966 2.11344,-0.46228 2.11344,-0.46228" data-paper-data="{&quot;origPos&quot;:null}"/><path d="M237.45279,87.37509c0,0 1.4935,-0.22678 1.72598,0.64544" data-paper-data="{&quot;origPos&quot;:null}"/></g><g data-paper-data="{&quot;index&quot;:null}" stroke-linejoin="miter"><path d="M214.35425,285.0234c0,0 -0.93767,-21.06363 -0.7183,-34.70087c0.08341,-5.18587 0.6008,-12.76046 2.84867,-16.58959c3.48116,-5.93 11.24165,-5.90859 14.39148,0.14496c2.78121,5.01046 3.87513,11.29379 2.39658,20.31029c-2.0459,13.74704 -9.10011,32.22836 -9.10011,32.22836c0,0 -3.13358,0.92586 -4.69867,0.70379c-2.26664,-0.32163 -5.11965,-2.09694 -5.11965,-2.09694z" data-paper-data="{&quot;origPos&quot;:null,&quot;origRot&quot;:0}" fill="#b5875c" stroke="none" stroke-width="0" stroke-linecap="butt"/><g stroke-linecap="round"><path d="M212.52592,283.97051c0,0 4.80162,1.46502 6.0695,1.43058c3.80363,-0.10332 7.45034,-1.79782 7.45034,-1.79782c0,0 3.55469,9.47679 2.67061,10.41852c-2.48709,2.64928 -6.45137,1.91585 -10.65896,1.80892c-3.96649,-0.10079 -4.462,3.95295 -8.40794,4.36865c-4.67043,0.49203 -9.47337,1.0636 -12.07979,-2.68346c-3.81327,-5.48206 5.19252,-4.1546 8.2084,-6.25711c3.01588,-2.10252 6.74784,-7.28828 6.74784,-7.28828z" data-paper-data="{&quot;origPos&quot;:null,&quot;index&quot;:null}" fill="#ffffff" stroke="none" stroke-width="0"/><path d="M228.87787,293.65991c0.27561,1.74842 0.3505,2.47951 -1.69222,3.47382c-2.79851,1.3622 -4.46238,0.55948 -8.66997,0.45255c-3.9665,-0.10079 -2.61364,2.74509 -9.28337,4.10301c-4.67045,0.49202 -9.33272,0.91508 -11.93914,-2.83198c-0.48,-0.69005 -0.71957,-1.87143 -0.71446,-2.99901c1.32141,1.50447 3.69966,5.26458 13.38323,3.62242c3.65658,-1.03235 5.39422,-4.11952 8.29941,-4.31332c8.07269,0.80335 7.5202,0.288 10.61651,-1.5075z" data-paper-data="{&quot;origPos&quot;:null,&quot;index&quot;:null}" fill="#a5a5a5" stroke="none" stroke-width="0"/><path d="M208.58377,292.92535l-2.29152,-2.17032" data-paper-data="{&quot;origPos&quot;:null,&quot;index&quot;:null}" fill="none" stroke="#000000" stroke-width="1.5"/><path d="M208.34534,288.71482l2.16759,2.17369" data-paper-data="{&quot;origPos&quot;:null,&quot;index&quot;:null}" fill="none" stroke="#000000" stroke-width="1.5"/><path d="M210.27446,286.67785l2.28817,2.0464" data-paper-data="{&quot;origPos&quot;:null,&quot;index&quot;:null}" fill="none" stroke="#000000" stroke-width="1.5"/></g></g><g data-paper-data="{&quot;index&quot;:null}" stroke-linejoin="miter"><path d="M262.18389,286.46113c-2.28664,0.09413 -5.39986,-1.13622 -5.39986,-1.13622c0,0 -4.53563,-20.56093 -6.65852,-34.02243c-0.80726,-5.11904 -1.59699,-12.6677 -0.04072,-16.84358c2.41012,-6.46702 10.05385,-7.85199 14.19302,-2.46479c3.59736,4.4274 5.75194,10.41325 5.84271,19.55516c0.34355,13.90049 -3.43157,33.36788 -3.43157,33.36788c0,0 -2.92619,1.47899 -4.50506,1.54399z" data-paper-data="{&quot;origPos&quot;:null,&quot;origRot&quot;:0}" fill="#b5875c" stroke="none" stroke-width="0" stroke-linecap="butt"/><g stroke-linecap="round"><path d="M255.16382,283.88396c0,0 4.31049,1.34891 7.04544,1.28124c2.21215,-0.05474 6.45504,-2.09305 6.45504,-2.09305c0,0 3.86451,9.35472 3.01189,10.32502c-2.39859,2.72965 -6.38488,2.12703 -10.5937,2.15857c-3.96767,0.02975 -4.32955,4.09759 -8.25968,4.64288c-4.65173,0.6454 -9.43328,1.37466 -12.16155,-2.28462c-3.99154,-5.35367 5.05306,-4.32317 7.99814,-6.52376c2.94508,-2.20059 6.50442,-7.50628 6.50442,-7.50628z" data-paper-data="{&quot;origPos&quot;:null}" fill="#ffffff" stroke="none" stroke-width="0"/><path d="M270.25523,296.75762c-2.75222,1.45353 -4.44157,0.70599 -8.65039,0.73753c-3.96768,0.02974 -2.52194,2.82958 -9.14339,4.40617c-4.65173,0.6454 -9.29757,1.22159 -12.02584,-2.43769c-0.50243,-0.67389 -0.78072,-1.84675 -0.81272,-2.97387c1.37017,1.46019 3.87084,5.14003 13.49514,3.18021c3.62064,-1.15208 5.2558,-4.29473 8.15304,-4.584c8.09474,0.53735 7.52561,0.04046 10.56117,-1.85593c0.33299,1.73839 0.43189,2.46664 -1.57702,3.5276z" data-paper-data="{&quot;origPos&quot;:null}" fill="#a5a5a5" stroke="none" stroke-width="0"/><path d="M251.52491,293.16341l-2.36168,-2.09378" data-paper-data="{&quot;origPos&quot;:null}" fill="none" stroke="#000000" stroke-width="1.5"/><path d="M253.38608,291.06413l-2.23793,-2.10123" data-paper-data="{&quot;origPos&quot;:null}" fill="none" stroke="#000000" stroke-width="1.5"/><path d="M253.0093,286.86361l2.35424,1.97002" data-paper-data="{&quot;origPos&quot;:null}" fill="none" stroke="#000000" stroke-width="1.5"/><path d="M254.64299,289.60717" data-paper-data="{&quot;origPos&quot;:null}" fill="none" stroke="#000000" stroke-width="1.5"/></g></g><g data-paper-data="{&quot;index&quot;:null}" stroke-linejoin="miter"><path d="M245.41918,93.94165c-0.72114,1.14873 -1.69491,2.24811 -2.96541,2.83562c-1.62206,0.65744 -3.37181,0.57022 -4.99386,-0.08722c-2.02845,-0.88497 -2.20289,-3.63336 -2.20289,-3.63336c0.96326,-0.43578 1.9898,-0.73402 3.04599,-0.88497c0.75989,0.08641 1.47178,0.39598 2.03509,0.88497c0.56152,-0.48782 1.27091,-0.79729 2.02845,-0.88497c1.01755,0 3.05263,1.76993 3.05263,1.76993z" data-paper-data="{&quot;origPos&quot;:null}" fill="#991414" stroke="none" stroke-width="1" stroke-linecap="butt"/><path d="M245.63115,93.6096c-3.19619,1.81994 -8.01526,1.34251 -10.9134,-0.1542" data-paper-data="{&quot;origPos&quot;:null,&quot;origRot&quot;:0,&quot;index&quot;:null}" fill="none" stroke="#700f0f" stroke-width="1.5" stroke-linecap="round"/></g><path d="M273.22609,224.18192c0,0 -16.90853,6.99501 -32.65018,6.99501c-13.08023,0 -32.29022,-6.20681 -32.29022,-6.20681c0,0 -0.7502,-19.26823 2.07027,-38.62432c1.34708,-9.24456 9.63549,-28.00116 9.63549,-28.00116l39.42941,0.0022c0,0 8.10006,9.57688 12.14909,31.25536c1.34967,7.22616 1.65617,34.5797 1.65617,34.5797z" data-paper-data="{&quot;origPos&quot;:null,&quot;index&quot;:null}" fill="#254978" stroke="none" stroke-width="0" stroke-linecap="butt" stroke-linejoin="miter"/><path d="M265.18,133.22528c-0.75304,10.32914 -2.52956,24.72911 -2.52956,24.72911c0,0 -11.13786,5.0758 -22.38096,5.54339c-9.9599,0.41422 -21.73016,-5.89172 -21.73016,-5.89172c0,0 -2.15583,-17.25511 -2.10223,-24.57852c0.06336,-8.65721 2.71344,-22.33412 2.71344,-22.33412c0,0 9.46798,-1.9893 10.81797,-2.28581c1.27717,4.51605 3.94712,8.16755 10.68982,8.0229c7.90244,-0.16955 9.20242,-3.70329 11.07876,-7.93524c4.49494,0.91393 10.76451,2.88179 10.76451,2.88179c0,0 3.43145,11.51908 2.67841,21.84822z" data-paper-data="{&quot;origPos&quot;:null,&quot;origRot&quot;:0,&quot;index&quot;:null}" fill="#b9dcb2" stroke="none" stroke-width="0" stroke-linecap="butt" stroke-linejoin="miter"/><path d="M286.99314,182.30761c0,0 1.33617,3.07121 1.48712,4.33513c-0.01201,0.40781 0.45107,3.59679 -0.6813,3.48934c-1.00169,0.01708 -0.72458,-1.33927 -1.07165,-2.47414c-0.33948,-1.11003 -1.18977,-3.33223 -1.18977,-3.33223c0,0 0.64218,2.70272 0.80992,4.32415c-0.06356,1.62081 0.57565,4.82431 -0.83657,4.74832c-1.19687,-0.30193 -0.90113,-3.0007 -1.06518,-3.59537c-0.37424,-1.35651 -0.71312,-3.57324 -1.21574,-3.71794c0.27774,1.3761 0.56058,3.08685 0.67581,4.47851c0.09666,1.1674 0.12042,3.64102 -0.37995,4.70015c-0.39851,0.84346 -1.30773,1.01792 -1.65607,0.15253c-0.26148,-0.50146 -0.05092,-3.19998 -0.12984,-3.75997c-0.23674,-1.68001 -0.36756,-3.50237 -0.96308,-4.37191c0.178,1.50135 0.32842,3.52165 0.25711,5.71949c-0.06641,2.04744 -0.5918,5.01936 -1.40225,4.79807c-2.14929,-0.19292 -0.58377,-3.47413 -0.91891,-5.95424c-0.37572,-2.78047 -0.87743,-3.4466 -1.86428,-6.0283c-0.40362,1.42359 0.34232,3.15441 -0.50593,4.51913c-1.12518,1.42689 -1.77166,0.18402 -1.80518,-0.36256c-0.11177,-1.92485 -1.2341,-5.28905 -0.80504,-7.18452c0.33968,-1.95548 0.82132,-4.47581 1.32239,-6.59027c-0.32471,-2.13361 -5.76022,-12.46913 -7.01399,-19.69244c-0.0087,-0.05043 -0.29543,-5.58148 4.37979,-6.50695c4.21261,-1.15396 7.28771,3.46559 7.69236,4.74461c2.95937,5.78958 1.98192,19.49248 1.98192,19.49248z" data-paper-data="{&quot;origPos&quot;:null,&quot;origRot&quot;:0,&quot;index&quot;:null}" fill="#b5875c" stroke="none" stroke-width="0" stroke-linecap="butt" stroke-linejoin="miter"/><path d="M197.93363,174.23868c0,0 -0.97743,-13.7029 1.98192,-19.49248c0.40465,-1.27902 3.47973,-5.89857 7.69235,-4.7446c4.67522,0.92547 4.3885,6.45651 4.3798,6.50694c-1.25376,7.22332 -6.68928,17.55884 -7.01399,19.69244c0.50107,2.11446 0.98271,4.63479 1.32239,6.59026c0.42906,1.89546 -0.69328,5.25968 -0.80504,7.18452c-0.03352,0.54657 -0.67999,1.78944 -1.80518,0.36256c-0.84824,-1.36473 -0.1023,-3.09554 -0.50593,-4.51913c-0.98684,2.58169 -1.48856,3.24783 -1.86428,6.02831c-0.33513,2.48011 1.23036,5.7613 -0.91892,5.95423c-0.81044,0.22129 -1.33584,-2.75062 -1.40225,-4.79807c-0.07131,-2.19784 0.07912,-4.21813 0.25711,-5.71949c-0.59552,0.86953 -0.72634,2.69191 -0.96308,4.37191c-0.07892,0.56001 0.13163,3.25851 -0.12984,3.75997c-0.34834,0.8654 -1.25758,0.69094 -1.65607,-0.15253c-0.50036,-1.05914 -0.47659,-3.53275 -0.37994,-4.70015c0.11524,-1.39164 0.39807,-3.1024 0.67582,-4.47851c-0.50262,0.1447 -0.84149,2.36143 -1.21574,3.71794c-0.16406,0.59467 0.13169,3.29344 -1.06518,3.59537c-1.41223,0.07598 -0.77302,-3.12752 -0.83657,-4.74832c0.16775,-1.62144 0.80992,-4.32415 0.80992,-4.32415c0,0 -0.85029,2.2222 -1.18977,3.33223c-0.34707,1.13487 -0.06996,2.49121 -1.07165,2.47413c-1.13237,0.10746 -0.66928,-3.08153 -0.68129,-3.48935c0.15096,-1.26392 1.48714,-4.33513 1.48714,-4.33513z" data-paper-data="{&quot;origPos&quot;:null,&quot;origRot&quot;:0,&quot;index&quot;:null}" fill="#b5875c" stroke="none" stroke-width="0" stroke-linecap="butt" stroke-linejoin="miter"/></g></g></svg>